#!OML:ASF H:\Terrain\Patient Classification 1\Walking\steve\steve.ASF
:FULLY-SPECIFIED
:DEGREES


181
root 8.26042 15.7951 1.87751 6.2854 2.26495 3.42406
lowerback 3.78475 -0.492596 0.303197
upperback -2.45619 -0.588252 1.20504
thorax -4.64997 -0.280948 1.12098
lowerneck -11.5998 -0.249916 -1.50506
upperneck 9.72855 0.0416256 -1.04941
head 4.81881 -0.104932 -0.0785194
rclavicle -7.05686e-015 1.43125e-014
rhumerus -90.5392 -36.8732 -2.63036
rradius 12.9677
rwrist 58.4949
rhand -18.8571 -36.3747
rfingers 7.12502
rthumb 7.44308 -66.2238
lclavicle -7.05686e-015 1.43125e-014
lhumerus -22.627 -9.44045 87.8698
lradius 60.063
lwrist 30.3812
lhand -29.7006 -18.3897
lfingers 7.12502
lthumb -3.02835 11.5685
rfemur -43.0004 0.122985 20.3943
rtibia 42.1769
rfoot -6.70077 6.78395
rtoes 1.28097
lfemur 9.95727 -0.775528 -25.1253
ltibia 40.7957
lfoot 20.0865 18.0105
ltoes 8.05816
182
root 8.25098 15.8297 2.14238 6.06174 1.80211 2.45413
lowerback 3.98921 -0.224498 1.10705
upperback -2.28318 -0.172434 1.42336
thorax -4.59541 -0.0961553 0.863676
lowerneck -11.0613 -0.304284 -1.72754
upperneck 9.09457 -0.0818955 -0.472476
head 4.53388 -0.130238 0.128191
rclavicle -1.88845e-015 3.97569e-015
rhumerus -88.6804 -37.9451 -5.6433
rradius 12.878
rwrist 56.6677
rhand -19.0209 -36.4792
rfingers 7.12502
rthumb 7.28493 -66.3338
lclavicle -1.88845e-015 3.97569e-015
lhumerus -22.9554 -9.30363 88.1957
lradius 58.8671
lwrist 30.2068
lhand -29.5509 -18.4307
lfingers 7.12502
lthumb -2.88374 11.5295
rfemur -41.9383 0.742785 21.5936
rtibia 42.5968
rfoot -7.77163 6.6905
rtoes 1.36183
lfemur 8.02843 0.0325609 -23.891
ltibia 45.3635
lfoot 18.8968 21.5141
ltoes 13.4666
183
root 8.23504 15.8787 2.39662 5.96115 1.71516 1.45981
lowerback 4.2057 -0.0705134 1.90808
upperback -2.22307 0.0952931 1.62693
thorax -4.65813 0.0151852 0.604239
lowerneck -9.74235 -0.152917 -2.12464
upperneck 7.44638 0.0379436 0.524161
head 4.20897 -0.0189551 0.55993
rclavicle -7.40473e-015 -1.82882e-014
rhumerus -86.5591 -38.8917 -9.23507
rradius 13.03
rwrist 54.5377
rhand -19.1517 -36.4694
rfingers 7.12502
rthumb 7.15876 -66.3283
lclavicle -7.40473e-015 -1.82882e-014
lhumerus -23.5525 -9.28243 88.6165
lradius 57.8039
lwrist 29.6255
lhand -29.9756 -18.1773
lfingers 7.12502
lthumb -3.2939 11.777
rfemur -40.7909 1.09135 22.8413
rtibia 42.5696
rfoot -8.51496 6.61113
rtoes 2.12925
lfemur 5.78695 0.449563 -22.5255
ltibia 49.6294
lfoot 14.0004 21.7432
ltoes 13.6153
184
root 8.21273 15.9268 2.64024 6.02154 1.77762 0.743203
lowerback 4.42063 0.0660944 2.31272
upperback -2.28773 0.321676 1.82683
thorax -4.84717 0.116707 0.566225
lowerneck -10.8389 -0.58594 -1.91224
upperneck 8.87315 -0.542245 0.462279
head 4.43425 -0.304202 0.414822
rclavicle -4.27387e-015 -3.97569e-015
rhumerus -83.2808 -39.4097 -14.4794
rradius 13.3209
rwrist 51.1448
rhand -19.4884 -36.2432
rfingers 7.12502
rthumb 6.83373 -66.1129
lclavicle -4.27387e-015 -3.97569e-015
lhumerus -24.1647 -9.27246 89.1619
lradius 56.474
lwrist 29.0878
lhand -29.7567 -17.8003
lfingers 7.12502
lthumb -3.08254 12.1571
rfemur -39.7229 1.44036 23.7201
rtibia 42.1932
rfoot -8.62775 6.70068
rtoes 4.50413
lfemur 3.19058 0.74597 -21.3363
ltibia 53.6131
lfoot 13.8118 19.5007
ltoes 13.2922
